<?xml version="1.0" encoding="utf-8"?>
<!-- Generator: Adobe Illustrator 26.0.2, SVG Export Plug-In . SVG Version: 6.00 Build 0)  -->
<svg version="1.1" id="Calque_1" xmlns="http://www.w3.org/2000/svg" xmlns:xlink="http://www.w3.org/1999/xlink" x="0px" y="0px"
	 viewBox="0 0 130 101.7" style="enable-background:new 0 0 130 101.7;" xml:space="preserve">
<style type="text/css">
	.st0{fill:url(#SVGID_1_);}
	.st1{fill:#776DB0;}
	.st2{fill:#DBA507;}
	.st3{fill:url(#SVGID_00000008125099198953070220000013632924858770096818_);}
	.st4{fill:url(#SVGID_00000158002384490079082390000001879863469973023381_);}
	.st5{fill:url(#SVGID_00000064336546221100862070000009111148452933356944_);}
	.st6{fill:url(#SVGID_00000171698015963093436660000003010669723980397999_);}
	.st7{fill:url(#SVGID_00000181780763426645590510000013751174358160890276_);}
	.st8{fill:#A470AE;}
	.st9{fill:#F9B03D;}
	.st10{fill:url(#SVGID_00000078753465651334001960000004487850998713607561_);}
	.st11{fill:url(#SVGID_00000080923919814897698350000007874584576568504244_);}
	.st12{fill:url(#SVGID_00000039815915841854710680000001619429881696834727_);}
	.st13{fill:url(#SVGID_00000145740387005931304350000006144046119521942687_);}
</style>
<g>
	<g>
		
			<linearGradient id="SVGID_1_" gradientUnits="userSpaceOnUse" x1="-276.8286" y1="1350.9543" x2="-362.308" y2="1436.4337" gradientTransform="matrix(1 0 0 1 0 -1088.7418)">
			<stop  offset="2.034505e-07" style="stop-color:#A470AE"/>
			<stop  offset="0.5" style="stop-color:#8C6EAE"/>
			<stop  offset="1" style="stop-color:#776DB0"/>
		</linearGradient>
		<path class="st0" d="M-258.4,281.7c0-1.2-0.4-1.7-1.5-2.2c-19.8-8.1-39.6-16.3-59.5-24.4c-0.5-0.2-1.2-0.2-1.7,0
			c-16.6,6.7-33.3,13.5-49.9,20.2c-2.8,1.1-5.5,2.3-8.3,3.4c0,0.1,0,0.1,0.1,0.2c19.6-6.5,39.3-13,59-19.5c0,30.4,0,60.7,0,91
			c-19.7-6.6-39.2-13.2-58.8-19.7c0,0.1-0.1,0.1-0.1,0.2c0.2,0.1,0.5,0.2,0.7,0.3c19.2,7.9,38.3,15.8,57.5,23.6
			c0.5,0.2,1.1,0.1,1.6,0c20-8.1,39.9-16.2,59.9-24.3c0.8-0.3,1-0.7,1-1.6C-258.4,313.2-258.5,297.5-258.4,281.7z M-267.6,287.6
			c-0.1,1.2,0,2.4,0,3.7c-1.4,0-2.7-0.1-3.9,0c-5.1,0.5-9.9-0.6-14.5-2.8c-5.1-2.3-10.3-4.2-15.6-6.4c0,0.5,0,0.9,0,1.2
			c0,5.2,0,10.5,0,15.7c0,1,0.3,1.2,1.3,1.2c10.5,0,21,0,31.6,0c0.4,0,0.8,0,1.3,0c0,3.1,0,6.1,0,9.2c-0.4,0-0.8,0-1.1,0
			c-10.6,0-21.1,0-31.7,0c-1,0-1.4,0.2-1.3,1.3c0,5.2,0,10.5,0,15.7c0,0.3,0,0.7,0,1.1c0.4-0.1,0.6-0.2,0.9-0.3
			c6.9-2.8,13.8-5.6,20.6-8.3c0.8-0.3,1.7-0.5,2.6-0.5c3.3-0.1,6.5,0,10,0c0,1.7,0,3.3,0,4.9c0,0.3-0.6,0.6-1,0.8
			c-8.1,3.3-16.2,6.6-24.3,9.9c-5.5,2.2-11,4.5-16.5,6.7c-0.5,0.2-0.9,0.3-1.5,0.6c0-24.4,0-48.6,0-73c1.4,0.6,2.8,1.1,4.1,1.6
			c12.6,5.1,25.2,10.3,37.8,15.4C-267.9,285.9-267.5,286.4-267.6,287.6z"/>
	</g>
	<g>
		<path class="st1" d="M-371.8,324.3c11.2,4.5,22.3,9.1,33.5,13.6c2.9,1.2,5.8,2.3,8.8,3.5c0-24.4,0-48.6,0-73
			c-6,2.5-11.9,4.8-17.8,7.3c-0.2,0.1-0.4,0.4-0.4,0.6c0,3.1,0,6.2,0,9.5c3.1-1.3,6.1-2.5,9.1-3.7c0,15.3,0,30.5,0,45.7
			c-0.2,0-0.3-0.1-0.4-0.1c-8-3.2-15.9-6.5-23.9-9.7c-0.7-0.3-0.7-0.7-0.7-1.3c0-5,0-10,0-14.9c0-0.4,0-0.8,0-1.3c-3.1,0-6,0-9,0
			c0,0.3-0.1,0.5-0.1,0.7c0,7.3,0,14.6,0,21.9C-372.7,323.9-372.3,324.1-371.8,324.3z"/>
	</g>
</g>
<g>
	<g>
		<path class="st1" d="M-531.1-117.5c-23.2-0.9-42.6,19.9-42.3,41c0.1,5.4,0,10.8,0,16.2c0,3-0.7,5.8-2.5,8.3
			c-4.3,6-10.1,8.6-17.5,7.2c-7.5-1.4-12.8-5.5-14.9-13.1c-0.3-1-0.4-2-0.5-3.1c-3.5,0-6.9,0-10.5,0c0.2,1.5,0.3,2.9,0.5,4.2
			c3,15.7,18.4,25.7,34.2,22.3c13.7-2.9,22.1-13.4,22.1-27.4c0-6.2,0-12.3,0-18.5c0-1,0.1-1.9,0.3-2.9c4.6-19,24.9-28.6,43-20.5
			c9.4,4.2,14.8,11.8,17.1,22.2c-14.9,0-29.6,0-44.3,0c0,3.4,0,6.5,0,9.6c18.3,0,36.4,0,54.8,0c0-1.6,0-3.1,0-4.6
			C-490.7-97.1-509.4-116.6-531.1-117.5z"/>
	</g>
	<g>
		<path class="st1" d="M-503-62.1c-1.2,0-1.9,0.3-2.4,1.4C-515-41-539.3-41.3-551-51.2c-1.6-1.4-3.1-2.9-4.6-4.2
			c-1,3.2-1.8,6.3-2.9,9.4c-0.5,1.3-0.2,1.9,0.8,2.8c21.3,17.7,54.3,8.8,63.7-17.2c0.2-0.4,0.2-0.9,0.4-1.6
			C-496.9-62-500-62-503-62.1z"/>
	</g>
	<g>
		<path class="st1" d="M-573.2-101.4c0.4-0.6,0.6-0.8,0.7-1c2.3-4.4,5.2-8.2,9.3-11.1c0.5-0.3,0.7-1.3,0.8-2c0.1-5.4,0-10.8,0-16.2
			c0-0.8,0-1.5,0-2.3c-13.9,0-27.5,0-41.1,0c0,3.6,0,7.1,0,10.8c10.1,0,20,0,30.3,0C-573.2-115.8-573.2-108.8-573.2-101.4z"/>
	</g>
</g>
<g>
	<g>
		<path class="st2" d="M89.2,17.3C66,16.4,46.6,37.2,47,58.3c0.1,5.4,0,10.8,0,16.2c0,3-0.7,5.8-2.5,8.3c-4.3,6-10.1,8.6-17.5,7.2
			c-7.5-1.4-12.8-5.5-14.9-13.1c-0.3-1-0.4-2-0.5-3.1c-3.5,0-6.9,0-10.5,0c0.2,1.5,0.3,2.8,0.5,4.2c3,15.7,18.4,25.7,34.2,22.3
			C49.5,97.2,58,86.8,58,72.8c0-6.2,0-12.3,0-18.5c0-1,0.1-1.9,0.3-2.9c4.6-19,24.9-28.6,43-20.5c9.4,4.2,14.8,11.8,17.1,22.2
			c-14.9,0-29.6,0-44.3,0c0,3.4,0,6.5,0,9.6c18.3,0,36.4,0,54.8,0c0-1.6,0-3.1,0-4.6C129.6,37.6,110.9,18.2,89.2,17.3z"/>
	</g>
	<g>
		<path class="st2" d="M117.3,72.7c-1.2,0-1.9,0.3-2.4,1.4c-9.6,19.7-33.9,19.3-45.6,9.4c-1.6-1.4-3.1-2.8-4.6-4.2
			c-1,3.2-1.8,6.3-2.9,9.4c-0.5,1.3-0.2,1.9,0.8,2.7c21.3,17.7,54.3,8.8,63.7-17.2c0.2-0.4,0.2-0.9,0.4-1.6
			C123.4,72.7,120.4,72.8,117.3,72.7z"/>
	</g>
	<g>
		<path class="st2" d="M47.2,33.4c0.4-0.6,0.6-0.8,0.7-1c2.3-4.4,5.2-8.2,9.3-11.1c0.5-0.3,0.7-1.3,0.7-2c0.1-5.4,0-10.8,0-16.2
			c0-0.7,0-1.5,0-2.3c-13.9,0-27.5,0-41.1,0c0,3.6,0,7.1,0,10.8c10.1,0,20,0,30.3,0C47.2,19,47.2,26,47.2,33.4z"/>
	</g>
</g>
<g>
	
		<linearGradient id="SVGID_00000054971387185735351150000011756538577596853390_" gradientUnits="userSpaceOnUse" x1="-301.7288" y1="841.613" x2="-367.4788" y2="907.3631" gradientTransform="matrix(1 0 0 1 0 -1088.7418)">
		<stop  offset="2.034505e-07" style="stop-color:#A470AE"/>
		<stop  offset="1" style="stop-color:#776DB0"/>
	</linearGradient>
	<path style="fill:url(#SVGID_00000054971387185735351150000011756538577596853390_);" d="M-312.8-257.9c0-0.1,0-0.2,0-0.3
		c-10.7,0-21.4,0-32.1,0c0,0.2,0,0.4,0,0.7c4.9,0,9.8,0,15.4,0c-7.7,5.8-9.5,13.1-9.4,21.5c0.1,22.1-0.1,44.2-0.2,66.2
		c0,4.6-1,8.8-5.7,11.1c9.5,0.2,18.7-6.9,21.6-17c1.2-4.2,1.7-8.6,1.7-13c0.2-21.6,0.1-43.2,0.1-64.7c0-1.3,0-2.6,0-4.4
		C-318.4-257.9-315.6-257.9-312.8-257.9z"/>
	
		<linearGradient id="SVGID_00000032610832537565918630000005420919890594516670_" gradientUnits="userSpaceOnUse" x1="-355.7979" y1="907.1888" x2="-372.9453" y2="924.3362" gradientTransform="matrix(1 0 0 1 0 -1088.7418)">
		<stop  offset="2.034505e-07" style="stop-color:#A470AE"/>
		<stop  offset="1" style="stop-color:#776DB0"/>
	</linearGradient>
	<path style="fill:url(#SVGID_00000032610832537565918630000005420919890594516670_);" d="M-361.8-186c-4.6-1.4-8.9-1.1-12.5,2.4
		s-3.7,7.8-2.5,12.3c2.3,8.2,10.8,14,18.6,12.7c-0.4-0.5-0.8-0.9-1.1-1.4c-2.9-3.4-3.2-5.4-1.1-9.4c0.9-1.7,2.1-3.3,3-5
		C-354.6-179.4-356.4-184.3-361.8-186z"/>
	
		<linearGradient id="SVGID_00000082345725552415454660000001552871408770980008_" gradientUnits="userSpaceOnUse" x1="-279.4644" y1="830.0062" x2="-292.1343" y2="842.6761" gradientTransform="matrix(1 0 0 1 0 -1088.7418)">
		<stop  offset="2.034505e-07" style="stop-color:#A470AE"/>
		<stop  offset="1" style="stop-color:#776DB0"/>
	</linearGradient>
	<path style="fill:url(#SVGID_00000082345725552415454660000001552871408770980008_);" d="M-279-234.9c0-7.7,0-15.3,0-23.3
		c-8.6,0-17,0-25.3,0C-291.7-254.9-283.8-246.6-279-234.9z"/>
	
		<linearGradient id="SVGID_00000021814841175618038520000008339641392764181162_" gradientUnits="userSpaceOnUse" x1="-273.9719" y1="911.5587" x2="-298.4268" y2="936.0136" gradientTransform="matrix(1 0 0 1 0 -1088.7418)">
		<stop  offset="2.034505e-07" style="stop-color:#A470AE"/>
		<stop  offset="1" style="stop-color:#776DB0"/>
	</linearGradient>
	<path style="fill:url(#SVGID_00000021814841175618038520000008339641392764181162_);" d="M-278.5-181.5
		c-4.6,12.1-13.8,19-25.8,22.5c0.1,0.2,0.2,0.5,0.4,0.8c6.4,0,12.8,0,19.2,0c5.1,0,5.1,0,5.6-5.1c0.5-5.9,0.9-11.8,1.3-17.8
		C-278.1-181.2-278.3-181.3-278.5-181.5z"/>
	
		<linearGradient id="SVGID_00000180338782875234461310000012598749351628103040_" gradientUnits="userSpaceOnUse" x1="-294.6394" y1="868.1312" x2="-308.9894" y2="882.4811" gradientTransform="matrix(1 0 0 1 0 -1088.7418)">
		<stop  offset="2.034505e-07" style="stop-color:#A470AE"/>
		<stop  offset="1" style="stop-color:#776DB0"/>
	</linearGradient>
	<path style="fill:url(#SVGID_00000180338782875234461310000012598749351628103040_);" d="M-302-228c-1.3,6.4-3.5,12.1-10.1,15.4
		c5.7,3.1,8.6,7.9,10.5,13.7C-300.4-208.6-300.2-218.3-302-228z"/>
</g>
<g>
	<g>
		<path class="st8" d="M-314.3,108.8c5.1-3,9.4-6.4,12.6-10.8c1.7-2.4,3.7-3.8,6.4-4.9c12-4.7,18.4-18,14.9-30.6
			c-3.4-12.2-15.8-20.4-28-18.6c-13.4,2-22.7,13-22.4,26.1c0.1,4.6,0.8,6.7,4.5,14.2c-3.4,3-7.4,4.9-11.9,5.8
			c-1.2,0.3-1.9-0.2-2.4-1.2c-3-5.6-4.8-11.6-4.9-17.9c-0.1-20.1,0-40.1,0-60.2c0-0.2,0.1-0.4,0.1-0.8c4.8,0,9.6,0,14.6,0
			c0,9.3,0,18.5,0,28.2c10.2-7.8,21.3-10.6,33.5-8.3c8.6,1.6,15.8,5.7,21.8,12.1c12,12.9,14.2,32.2,5.5,47.5
			C-278.8,104.8-296.4,112.7-314.3,108.8z"/>
	</g>
	<g>
		<path class="st1" d="M-378.9,70.4c5,0,9.8,0,14.3,0c0.7,2.9,1.2,5.6,2.1,8.2c4.3,11.4,16.2,18.3,28,16.2
			c12.3-2.1,21.2-12.3,21.5-24.6c0.1-5.7,0.1-11.3,0-17c0-1.5,0.3-2.2,1.9-2.5c4.3-0.9,8.5-0.9,12.9,0.4c0,1,0,2,0,3
			c-0.1,6.5,0.3,13.1-0.4,19.6c-1.7,17.4-14.2,31.3-31.1,35.2c-16.8,3.8-34-3.3-43.3-18.1C-376.7,84.7-378.8,77.9-378.9,70.4z"/>
	</g>
	<path class="st9" d="M-298.2,9.9c0,4.4,0,8.7,0,13.1c-4.8,0-9.6,0-14.5,0c0-4.2,0-8.5,0-13.1C-307.9,9.9-303.1,9.9-298.2,9.9z"/>
</g>
<g>
	<g>
		<path class="st1" d="M-662.6-275.7c0.2-0.8,0.4-1.6,0.7-2.4c0.2-0.6,0.6-1,0.9-1.6c0,0,0.1,0,0.2,0c0,0.4,0,0.9,0,1.3h0.1
			c0-0.2,0.1-0.4,0.1-0.6c0.4,0.2,0.8,0.3,1.2,0.5c-0.4-0.6-1.6-0.3-1.2-1.5c0.4,0.1,0.7,0.3,1.1,0.4c0,0,0-0.1,0.1-0.1
			c-0.3-0.2-0.7-0.3-1-0.5c0-0.1,0-0.1,0-0.2c0.3-0.1,0.7-0.2,1-0.4c-0.1,0-0.2-0.1-0.4-0.2c1.6-1.4,3.4-2,5.4-2
			c6.8,0.1,8.6,6.9,6.5,11c-1,1.8-2.6,2.8-4.4,3.5c-0.6,0.2-1.2,0.5-1.7,0.7c-0.6,0.4-0.8,0.8-0.3,1.4c0.4,0.5,0.9,1,1.5,1.4
			c1.8,1.3,3.8,1.9,5.9,2.2c2.7,0.3,5.4,0.3,8.1-0.6c4.4-1.5,6.7-4.7,7.3-9.3c0.1-0.8,0.1-1.6,0.1-2.4c0-9.2,0-18.5,0-27.7
			c0-4.2,2.8-7.4,6.9-8.1c0.5-0.1,1-0.1,1.5-0.1c5.8,0,11.6,0,17.4,0c2.6,0,5.1-0.2,7.6-1.1c5.1-1.6,7.7-5.2,8.4-10.4
			c0.2-2.1,0.2-4.3-0.2-6.4c-0.9-4.1-3.4-6.6-7.4-7.8c-2.3-0.7-4.7-0.8-7.1-0.8c-4.6,0-9.1,0-13.7,0c-0.2,0-0.3,0-0.6,0
			c0,0.2,0,0.5,0,0.7c0,4.7,0,9.4,0,14c0,4.1-2.7,7.2-6.6,8c-0.3,0.1-0.5,0.1-0.8,0.1c-1.7,0-3.5,0-5.3,0c0-0.2,0-0.4,0-0.6
			c0-3.9,0-7.8-0.1-11.7c0-1.2-0.2-2.5-0.5-3.7c-0.9-3.7-3.3-5.8-7-6.4c-1.2-0.2-2.4-0.2-3.6-0.3c-0.5,0-1,0-1.5,0c0-0.5,0-1,0-1.5
			c0.2,0,0.4,0,0.6,0c14.5,0,29.1,0,43.7,0c5,0,9.9,0.6,14.6,2.4c3.3,1.2,6.1,3.2,8,6.2c3,4.6,2.3,9.7-1.8,13.4
			c-2.5,2.2-5.3,3.7-8.5,4.7c-1.9,0.6-3.8,1.2-5.7,1.8c-0.2,0.1-0.4,0.1-0.6,0.3c0.2,0.1,0.4,0.1,0.6,0.1c3.2,0.6,6.4,1.4,9.5,2.6
			c2.7,1.1,5.3,2.6,7.4,4.7c5.2,5.2,5,12.9-0.6,17.7c-2.7,2.3-5.9,3.7-9.2,4.6c-4.3,1.2-8.7,1.6-13.1,1.6c-4.5,0-9,0-13.6,0
			c-0.2,0-0.4,0-0.5,0c-0.4-0.1-0.6-0.4-0.5-0.8c0.1-0.3,0.4-0.5,0.6-0.7c0.1-0.1,0.3,0,0.5,0c3.3,0,6.7,0,10-0.1
			c2.8-0.1,5.6-0.7,8.1-2c4.5-2.3,6.8-6,7.2-10.9c0.2-2.6,0-5.3-1.2-7.7c-1.8-3.6-4.8-5.8-8.5-7.1c-2.5-0.8-5.1-1.1-7.7-1.2
			c-4.5-0.1-9-0.1-13.5-0.1c-0.1,0-0.2,0-0.3,0c0,0.2,0,0.5,0,0.7c0,9.3,0,18.6,0,27.9c0,3.6-0.7,7-2.5,10.1
			c-2.1,3.4-5.2,5.6-8.8,7.2c-4.8,2.1-9.9,2.7-15.1,2.2c-3.2-0.3-6.3-1.1-9.2-2.6c-1.7-0.9-3.2-2-4.5-3.4c-0.1-0.1-0.2-0.2-0.2-0.3
			c0-0.6-0.3-0.9-0.8-1v-0.1c0.3-0.1,0.5-0.2,0.8-0.3c0-0.1,0-0.1-0.1-0.1c-0.6,0.2-1,0.1-1.3-0.4c-0.8-1.4-1.5-2.8-1.7-4.4
			c0-0.1-0.1-0.2-0.1-0.2C-662.6-274.4-662.6-275.1-662.6-275.7z M-660.2-277.9c0-0.1-0.1-0.1-0.1-0.1c-0.1,0.1-0.4,0.3-0.4,0.5
			c0,0.3,0.2,0.4,0.5,0.4c0.1,0,0.2,0.1,0.3,0.1s0.3-0.1,0.4-0.2c0.1-0.1,0.1-0.4,0-0.5c0-0.1-0.3-0.1-0.4-0.2
			C-660-278-660.1-278-660.2-277.9z M-660-271.4c-0.4,0-0.7,0.1-0.9,0.1v0.1c0.5,0,1,0,1.6,0c-0.3-0.1-0.4-0.2-0.5-0.3
			c0.2-0.2,0.3-0.3,0.4-0.5l-0.1-0.1c-0.2,0.1-0.3,0.2-0.5,0.4c-0.2-0.1-0.3-0.2-0.4-0.3c0,0,0,0-0.1,0.1
			C-660.3-271.7-660.2-271.6-660-271.4z M-659.5-276.1c0.1-0.3,0.1-0.7-0.2-0.8c-0.2,0-0.5,0.2-0.8,0.4c0-0.1-0.1-0.2-0.2-0.5
			c0,0.3,0,0.5,0,0.7c0.2,0,0.4,0.1,0.4,0.1c0.2-0.2,0.4-0.4,0.5-0.6C-659.7-276.5-659.6-276.3-659.5-276.1z M-659.5-275L-659.5-275
			c0-0.2,0-0.6-0.1-0.6c-0.3-0.1-0.7,0-1,0.1c-0.1,0-0.1,0.3-0.1,0.5h0.1c0.1-0.1,0.1-0.3,0.2-0.4c0.1,0.1,0.2,0.2,0.3,0.2
			c0.1-0.1,0.3-0.2,0.4-0.3C-659.7-275.4-659.6-275.2-659.5-275z M-659.6-273.9c-0.3-0.1,0-0.9-0.6-0.7c-0.1-0.2-0.3-0.1-0.3,0
			c0,0.2,0,0.5,0.1,0.5C-660.2-274-659.9-274-659.6-273.9z M-659.9-270.1c-0.2,0.3-0.5,0.5-0.5,0.7s0.3,0.5,0.5,0.4
			c0.2,0,0.5-0.3,0.5-0.5C-659.4-269.6-659.7-269.8-659.9-270.1z M-660.4-270.8L-660.4-270.8c0,0.2,0.1,0.5,0.3,0.6
			c0.1,0.1,0.4,0,0.5-0.1s0.1-0.3,0.2-0.6c-0.2,0.2-0.4,0.5-0.6,0.5C-660.1-270.4-660.2-270.6-660.4-270.8z"/>
	</g>
	<g>
		<path class="st8" d="M-605.6-258.8c-1.1-0.1-2.2-0.2-3.3-0.3c-5.2-0.6-10.2-2-14.9-4.1c-0.1,0-0.2-0.1-0.2-0.1
			c1.3-1.3,2.7-2.6,4-4c1.4,0.4,2.8,1,4.3,1.4c23.3,6.7,47.5-6.1,55.1-29.1c5.7-17.6-0.1-37.1-14.7-48.7c-6.7-5.3-14.2-8.5-22.7-9.4
			c-13.5-1.4-25.3,2.4-35.5,11.5c-0.3,0.3-0.7,0.4-1.1,0.4c-2.2,0-4.3,0-6.5,0c0,0-0.1,0-0.2-0.1c0.1-0.1,0.2-0.2,0.2-0.3
			c8-8.9,17.8-14.5,29.6-16.5c1.6-0.3,3.3-0.4,4.9-0.6c0.2,0,0.3-0.1,0.5-0.1c1.8,0,3.6,0,5.4,0c0.1,0,0.2,0.1,0.3,0.1
			c1.6,0.2,3.2,0.3,4.8,0.5c12.1,2,22.2,7.5,30.2,16.8c6.8,7.8,10.7,16.9,11.8,27.1c0.1,1,0.2,2,0.3,3c0,1.6,0,3.2,0,4.8
			c0,0.2-0.1,0.4-0.1,0.6c-0.2,1.8-0.3,3.6-0.6,5.3c-1.8,10.2-6.2,19-13.4,26.4c-8.3,8.6-18.5,13.5-30.4,14.9c-1,0.1-2,0.2-3,0.3
			C-602.2-258.8-603.9-258.8-605.6-258.8z"/>
	</g>
	<path class="st9" d="M-640.1-334c-0.1,0.2-0.2,0.3-0.3,0.5c-4.3,6.5-6.8,13.6-7.3,21.4c-0.8,13.5,3.5,25,12.8,34.7
		c0.3,0.4,0.5,0.7,0.5,1.2c0,1.8,0.1,3.6-0.5,5.4c0,0.1-0.1,0.3-0.2,0.5c-0.2-0.1-0.3-0.2-0.4-0.3c-9.1-7.9-14.9-17.7-16.9-29.5
		c-2.1-11.8-0.1-23,5.8-33.4c0.2-0.4,0.5-0.6,1-0.6c1.8,0.1,3.6,0.1,5.4,0.1C-640.1-334.1-640.1-334-640.1-334z"/>
</g>
<path d="M-370.5,25.1c-0.2,0.1-0.4,0.2-0.5,0.2s-0.2-0.2-0.3-0.2c0.1-0.1,0.2-0.2,0.3-0.2C-370.8,24.9-370.7,25-370.5,25.1z"/>
<g>
	
		<linearGradient id="SVGID_00000052825161843783332060000007088816026595601075_" gradientUnits="userSpaceOnUse" x1="-592.9375" y1="1269.8042" x2="-651.3876" y2="1328.2543" gradientTransform="matrix(1 0 0 1 0 -1088.7418)">
		<stop  offset="2.034505e-07" style="stop-color:#A470AE"/>
		<stop  offset="1" style="stop-color:#776DB0"/>
	</linearGradient>
	<path style="fill:url(#SVGID_00000052825161843783332060000007088816026595601075_);" d="M-613.3,160.7c-3.5,0.3-6.6,0.8-9.5,2.6
		c-5.9,3.8-8.5,9.3-8.4,16.3c0,26,0,52,0,78c0,0.6,0,1.2,0,2.1c1.5-0.1,2.8-0.1,4-0.3c8.5-1.6,14-8.8,14-18.1c0-26.1,0-52.2,0-78.4
		C-613.2,162.1-613.3,161.5-613.3,160.7z"/>
	
		<linearGradient id="SVGID_00000116195484759730372710000008290310586859640247_" gradientUnits="userSpaceOnUse" x1="-573.9371" y1="1307.4427" x2="-605.7181" y2="1339.2238" gradientTransform="matrix(1 0 0 1 0 -1088.7418)">
		<stop  offset="2.034505e-07" style="stop-color:#A470AE"/>
		<stop  offset="1" style="stop-color:#776DB0"/>
	</linearGradient>
	<path style="fill:url(#SVGID_00000116195484759730372710000008290310586859640247_);" d="M-576.1,216.6c-5.6-4.9-12.3-6.5-19.5-7.3
		c6.5,3.5,9.8,9.2,11,16.1c1.4,7.6,1,15.2-1.1,22.7c-1,3.7-2.8,7-5.9,9.3c-1.3,1-2.8,1.8-4.4,2.8c1.8-0.3,3.2-0.5,4.5-0.8
		c10.7-2,22.2-9.6,22.6-23.4C-568.7,228.6-570.2,221.8-576.1,216.6z"/>
	
		<linearGradient id="SVGID_00000155827336434312637810000013871666825435810445_" gradientUnits="userSpaceOnUse" x1="-583.2153" y1="1257.6573" x2="-610.9977" y2="1285.4397" gradientTransform="matrix(1 0 0 1 0 -1088.7418)">
		<stop  offset="2.034505e-07" style="stop-color:#A470AE"/>
		<stop  offset="1" style="stop-color:#776DB0"/>
	</linearGradient>
	<path style="fill:url(#SVGID_00000155827336434312637810000013871666825435810445_);" d="M-601.9,205.7c2.4-0.7,4.8-1.2,7.1-2.1
		c2-0.8,4-1.8,5.8-2.9c8.9-5.3,12.7-15.4,9.5-25.4c-2.7-8.6-11.7-13.7-22.7-14.4c3.6,1.4,5,4.3,6,7.3c2.5,8.4,3,16.8,1.2,25.4
		C-596.1,198.3-597.8,202.6-601.9,205.7z"/>
	
		<linearGradient id="SVGID_00000052812774574464923560000002522141598347066286_" gradientUnits="userSpaceOnUse" x1="-648.3487" y1="1328.2526" x2="-665.7613" y2="1345.6652" gradientTransform="matrix(1 0 0 1 0 -1088.7418)">
		<stop  offset="2.034505e-07" style="stop-color:#A470AE"/>
		<stop  offset="1" style="stop-color:#776DB0"/>
	</linearGradient>
	<path style="fill:url(#SVGID_00000052812774574464923560000002522141598347066286_);" d="M-656.8,235.8c-6.9,0-12.6,5.6-12.6,12.3
		s5.7,12.5,12.3,12.5c6.7,0,12.5-5.7,12.5-12.4C-644.7,241.2-650.4,236.1-656.8,235.8z"/>
</g>
</svg>
